<?xml version="1.0" encoding="UTF-8"?>
<svg xmlns="http://www.w3.org/2000/svg" viewBox="0 0 205.46 35.6"><defs><style>.cls-1{fill:#ffc006;}.cls-2{fill:#fff;}.cls-3{fill:#009fa6;}</style></defs><title>NovaSource_Logo_Tag_wht</title><g id="Layer_2" data-name="Layer 2"><g id="Layer_1-2" data-name="Layer 1"><circle class="cls-1" cx="73.13" cy="2.98" r="2.98"/><path class="cls-2" d="M80,28.84h2.49a3.31,3.31,0,0,1,1,.15,2.38,2.38,0,0,1,.79.42,1.81,1.81,0,0,1,.5.66A2.07,2.07,0,0,1,85,31v0a2,2,0,0,1-.21.94,2,2,0,0,1-.57.68,2.41,2.41,0,0,1-.83.42,3.66,3.66,0,0,1-1,.13H80.78v2.35H80Zm2.4,3.63a2.56,2.56,0,0,0,.75-.11,1.88,1.88,0,0,0,.58-.3,1.37,1.37,0,0,0,.37-.46,1.47,1.47,0,0,0,.13-.6v0a1.3,1.3,0,0,0-.49-1.08,2.15,2.15,0,0,0-1.3-.37H80.78v2.94Z"/><path class="cls-2" d="M91.55,35.6a3.47,3.47,0,0,1-1.38-.27,3.23,3.23,0,0,1-1.07-.75,3.16,3.16,0,0,1-.69-1.09,3.58,3.58,0,0,1-.24-1.31h0a3.48,3.48,0,0,1,.25-1.32,3.26,3.26,0,0,1,.69-1.09A3.18,3.18,0,0,1,90.19,29a3.24,3.24,0,0,1,1.38-.28A3.4,3.4,0,0,1,93,29a3.18,3.18,0,0,1,1.07.75,3.26,3.26,0,0,1,.69,1.09A3.62,3.62,0,0,1,95,32.15s0,0,0,0a3.66,3.66,0,0,1-.24,1.31,3.45,3.45,0,0,1-.7,1.09,3,3,0,0,1-1.07.75A3.32,3.32,0,0,1,91.55,35.6Zm0-.69a2.59,2.59,0,0,0,1.05-.21,2.46,2.46,0,0,0,.82-.59,2.62,2.62,0,0,0,.54-.86,2.9,2.9,0,0,0,.19-1.07h0A2.9,2.9,0,0,0,94,31.1a2.44,2.44,0,0,0-.55-.87,2.56,2.56,0,0,0-1.88-.81,2.46,2.46,0,0,0-1.87.8,2.73,2.73,0,0,0-.54.86A2.9,2.9,0,0,0,89,32.15v0a2.85,2.85,0,0,0,.19,1.06,2.65,2.65,0,0,0,1.38,1.46A2.44,2.44,0,0,0,91.57,34.91Z"/><path class="cls-2" d="M97.93,28.84h.81l1.9,5.54,1.83-5.56h.62l1.82,5.56,1.9-5.54h.79l-2.38,6.7h-.63l-1.83-5.4-1.83,5.4h-.63Z"/><path class="cls-2" d="M111.05,28.84h4.8v.67h-4V31.8h3.63v.68H111.8v2.34h4.1v.67h-4.85Z"/><path class="cls-2" d="M119.5,28.84h2.86a3.13,3.13,0,0,1,1.1.18,2,2,0,0,1,.79.49,1.54,1.54,0,0,1,.38.58,1.9,1.9,0,0,1,.13.73v0a2,2,0,0,1-.13.74,1.7,1.7,0,0,1-.37.57,2.14,2.14,0,0,1-.58.4,2.75,2.75,0,0,1-.72.22l2,2.72h-.92l-1.93-2.58h-1.9v2.58h-.75Zm2.8,3.39a2.38,2.38,0,0,0,.68-.09,2,2,0,0,0,.55-.27,1.36,1.36,0,0,0,.36-.43,1.34,1.34,0,0,0,.12-.58v0a1.16,1.16,0,0,0-.44-1,2,2,0,0,0-1.26-.35h-2.06v2.7Z"/><path class="cls-2" d="M135.5,35.59a3.83,3.83,0,0,1-1.46-.27,4.11,4.11,0,0,1-1.26-.8l.47-.55a4.05,4.05,0,0,0,1.05.71,3.17,3.17,0,0,0,1.23.23,1.71,1.71,0,0,0,1.08-.32,1,1,0,0,0,.4-.81v0a1.07,1.07,0,0,0-.08-.41.84.84,0,0,0-.26-.34,2,2,0,0,0-.53-.27,5.12,5.12,0,0,0-.86-.24,6.36,6.36,0,0,1-1-.29,2.24,2.24,0,0,1-.7-.39,1.49,1.49,0,0,1-.41-.53,1.73,1.73,0,0,1-.13-.71v0a1.58,1.58,0,0,1,.16-.72,1.71,1.71,0,0,1,.46-.58,2.28,2.28,0,0,1,.69-.38,2.73,2.73,0,0,1,.87-.13,3.55,3.55,0,0,1,1.28.2,3.93,3.93,0,0,1,1.06.61l-.44.58a3.24,3.24,0,0,0-.93-.55,2.93,2.93,0,0,0-1-.17,1.57,1.57,0,0,0-1,.31,1,1,0,0,0-.38.76v0a1,1,0,0,0,.08.43.92.92,0,0,0,.27.34,2,2,0,0,0,.55.28,5.58,5.58,0,0,0,.91.24,4,4,0,0,1,1.63.69,1.45,1.45,0,0,1,.53,1.2h0a1.74,1.74,0,0,1-.63,1.37,2.06,2.06,0,0,1-.72.38A2.94,2.94,0,0,1,135.5,35.59Z"/><path class="cls-2" d="M141.38,28.84h4.81v.67h-4.06V31.8h3.63v.68h-3.63v2.34h4.1v.67h-4.85Z"/><path class="cls-2" d="M149.83,28.84h2.86a3.09,3.09,0,0,1,1.1.18,2,2,0,0,1,.79.49,1.43,1.43,0,0,1,.38.58,1.9,1.9,0,0,1,.14.73v0a2,2,0,0,1-.14.74,1.56,1.56,0,0,1-.37.57,2,2,0,0,1-.57.4,2.94,2.94,0,0,1-.73.22l2.05,2.72h-.93l-1.93-2.58h-1.89v2.58h-.76Zm2.8,3.39a2.5,2.5,0,0,0,.69-.09,2,2,0,0,0,.54-.27,1.36,1.36,0,0,0,.36-.43,1.34,1.34,0,0,0,.13-.58v0a1.14,1.14,0,0,0-.45-1,2,2,0,0,0-1.26-.35h-2v2.7Z"/><path class="cls-2" d="M158,28.84h.84l2.36,5.73,2.38-5.73h.81l-2.86,6.7h-.67Z"/><path class="cls-2" d="M167.89,28.84h.75v6.65h-.75Z"/><path class="cls-2" d="M175.71,35.6a3.25,3.25,0,0,1-1.33-.26,3.3,3.3,0,0,1-1.75-1.82,3.47,3.47,0,0,1-.25-1.34h0a3.46,3.46,0,0,1,.25-1.33,3.39,3.39,0,0,1,.7-1.1,3.17,3.17,0,0,1,1.06-.74,3.32,3.32,0,0,1,1.35-.27,4,4,0,0,1,.82.07,2.85,2.85,0,0,1,.68.22,2.73,2.73,0,0,1,.58.33,5.15,5.15,0,0,1,.52.43l-.52.55a4.34,4.34,0,0,0-.91-.65,2.54,2.54,0,0,0-1.18-.26,2.45,2.45,0,0,0-1,.21,2.61,2.61,0,0,0-.82.58,2.77,2.77,0,0,0-.54.87,2.9,2.9,0,0,0-.19,1.07v0a2.9,2.9,0,0,0,.19,1.07,2.56,2.56,0,0,0,.54.87,2.81,2.81,0,0,0,.82.59,2.45,2.45,0,0,0,1,.21,2.54,2.54,0,0,0,1.18-.25,4.07,4.07,0,0,0,1-.71l.49.49c-.17.17-.35.33-.53.48a3.37,3.37,0,0,1-.61.36,3.5,3.5,0,0,1-.69.24A3.54,3.54,0,0,1,175.71,35.6Z"/><path class="cls-2" d="M181.77,28.84h4.81v.67h-4.06V31.8h3.63v.68h-3.63v2.34h4.11v.67h-4.86Z"/><path class="cls-2" d="M192.52,35.59a3.83,3.83,0,0,1-1.46-.27,4.11,4.11,0,0,1-1.26-.8l.47-.55a3.89,3.89,0,0,0,1,.71,3.14,3.14,0,0,0,1.23.23,1.68,1.68,0,0,0,1.07-.32,1,1,0,0,0,.41-.81v0a1.07,1.07,0,0,0-.08-.41.84.84,0,0,0-.26-.34,2,2,0,0,0-.53-.27,5.41,5.41,0,0,0-.86-.24,6.06,6.06,0,0,1-1-.29,2.13,2.13,0,0,1-.7-.39,1.49,1.49,0,0,1-.41-.53,1.73,1.73,0,0,1-.13-.71v0a1.58,1.58,0,0,1,.16-.72,1.82,1.82,0,0,1,.45-.58,2.47,2.47,0,0,1,.7-.38,2.69,2.69,0,0,1,.87-.13,3.55,3.55,0,0,1,1.28.2,4.08,4.08,0,0,1,1.06.61l-.44.58a3.24,3.24,0,0,0-.93-.55,3,3,0,0,0-1-.17,1.56,1.56,0,0,0-1,.31.92.92,0,0,0-.38.76v0a1.18,1.18,0,0,0,.07.43,1,1,0,0,0,.28.34,2,2,0,0,0,.55.28,5.43,5.43,0,0,0,.9.24,4,4,0,0,1,1.64.69,1.48,1.48,0,0,1,.53,1.2h0a1.79,1.79,0,0,1-.17.78,1.68,1.68,0,0,1-.47.59,1.93,1.93,0,0,1-.71.38A2.94,2.94,0,0,1,192.52,35.59Z"/><path class="cls-2" d="M12.42,19.92l-9.64-8.7V18.6a1.18,1.18,0,0,1-1.32,1.32H0V5.28H.3l9.62,8.86V6.6a1.19,1.19,0,0,1,1.32-1.32h1.48V19.92Z"/><path class="cls-2" d="M82.44,16.56a8.75,8.75,0,0,0,3.72,1.06c2.1,0,2.8-.84,2.8-1.74,0-1.38-1.58-1.7-3.32-2S80.06,13,80.06,9.42s3.1-4.36,5.56-4.36a8.33,8.33,0,0,1,5.47,1.88L90.29,8a1.27,1.27,0,0,1-1.83.38,7.27,7.27,0,0,0-3.14-.76c-1.1,0-2.46.34-2.46,1.48,0,1.34,1.86,1.7,3.4,2,1.76.36,5.51.64,5.51,4.56,0,3-2.27,4.48-5.57,4.48A9.51,9.51,0,0,1,79.94,18l.7-1.06A1.21,1.21,0,0,1,82.44,16.56Z"/><path class="cls-2" d="M98.87,12.6a7.59,7.59,0,1,1,15.18,0,7.59,7.59,0,1,1-15.18,0Zm2.78,0a4.8,4.8,0,1,0,9.6,0,4.8,4.8,0,1,0-9.6,0Z"/><path class="cls-2" d="M121.38,14V5.28h1.48a1.18,1.18,0,0,1,1.32,1.32V14a3.49,3.49,0,1,0,7,0V6.6a1.18,1.18,0,0,1,1.32-1.32h1.48V14c0,3.74-2.46,6.16-6.28,6.16S121.38,17.76,121.38,14Z"/><path class="cls-2" d="M146.07,18.6a1.18,1.18,0,0,1-1.32,1.32h-1.46V5.28h6.64a4.82,4.82,0,0,1,5,5,4.66,4.66,0,0,1-3,4.68l3.66,4.92h-2.34a1.84,1.84,0,0,1-1.6-.82l-2.8-3.84h-2.78Zm3.2-5.78c2.36,0,2.92-1.28,2.92-2.52,0-1.42-.86-2.54-2.92-2.54h-3.2v5.06Z"/><path class="cls-2" d="M173.86,9.2a4.48,4.48,0,0,0-3.44-1.56,4.9,4.9,0,0,0-4.78,5,4.88,4.88,0,0,0,4.78,5,4.38,4.38,0,0,0,3.44-1.54,1.26,1.26,0,0,1,1.46-.42l1.72.7a7.05,7.05,0,0,1-6.62,3.86,7.58,7.58,0,1,1,0-15.16A7.2,7.2,0,0,1,177,8.92l-1.72.7A1.27,1.27,0,0,1,173.86,9.2Z"/><path class="cls-2" d="M185,5.28h10.77V6.52a1.15,1.15,0,0,1-1.32,1.24h-6.66v3.66h6.28v1.16a1.18,1.18,0,0,1-1.32,1.32h-5v3.54h6.64a1.29,1.29,0,0,1,1.34,1.34v1.14H185Z"/><path class="cls-2" d="M21.31,12.6A7.36,7.36,0,0,1,28.89,5a7.36,7.36,0,0,1,7.6,7.6,7.35,7.35,0,0,1-7.6,7.6A7.35,7.35,0,0,1,21.31,12.6Zm2.78,0a4.8,4.8,0,1,0,9.6,0,4.8,4.8,0,1,0-9.6,0Z"/><path class="cls-2" d="M53.54,5.28h2l-7,14.64h-.16L41.5,5.28h2a1.54,1.54,0,0,1,1.54,1l3.48,7.52L52,6.26A1.54,1.54,0,0,1,53.54,5.28Z"/><path class="cls-3" d="M61.25,19.92h-2l7-14.64h.16l7,14.64h-2a1.55,1.55,0,0,1-1.55-1l-3.48-7.52-3.48,7.52A1.54,1.54,0,0,1,61.25,19.92Z"/><path class="cls-2" d="M200.08,3.69h-1V3.15h2.52v.54h-1V6.27h-.6Zm2.23-.54H203l1,1.48.94-1.48h.62V6.27h-.58V4.05l-1,1.5h-.06l-1-1.5V6.27h-.58Z"/></g></g></svg>
